<svg width="80" height="32" viewBox="0 0 80 32" fill="none" xmlns="http://www.w3.org/2000/svg">
<path d="M10.5814 12.3386V11.0691C10.1702 11.0122 9.75106 10.9766 9.32488 10.9766C4.18261 10.9766 0 15.2193 0 20.4345C0 23.6346 1.57637 26.4665 3.98105 28.1785C3.93692 28.1307 3.8938 28.0829 3.85169 28.034C2.3796 26.3607 1.53325 24.1544 1.53325 21.7386C1.53325 16.5986 5.54138 12.4576 10.5814 12.3386Z" fill="#25F4EE"/>
<path d="M10.8012 26.0923C13.0956 26.0923 15.0038 24.2064 15.0891 21.8993L15.0991 1.34372L18.7773 1.34983L18.7683 1.30405C18.6911 0.880897 18.649 0.445535 18.649 0H13.5829L13.5749 20.5943C13.4896 22.9003 11.6185 24.7516 9.32509 24.7516C8.61211 24.7516 7.94125 24.5705 7.34961 24.2552C8.12275 25.3446 9.38024 26.0923 10.8012 26.0923Z" fill="#25F4EE"/>
<path d="M25.697 8.37651V7.14976C24.2821 7.14976 22.9644 6.72356 21.8594 5.99219C22.8431 7.13857 24.1798 8.04694 25.697 8.37651Z" fill="#25F4EE"/>
<path d="M21.8581 5.99195C20.7801 4.73571 20.1253 3.097 20.1253 1.30469H18.7324C19.0894 3.2628 20.2707 4.9422 21.8581 5.99195Z" fill="#FE2C55"/>
<path d="M9.32427 16.0735C6.97575 16.0735 5.02734 18.051 5.02734 20.4323C5.02734 22.0913 5.99403 23.5317 7.34879 24.2559C6.84338 23.5459 6.54255 22.6772 6.54255 21.7363C6.54255 19.354 8.45285 17.4162 10.8014 17.4162C11.2396 17.4162 11.6597 17.4895 12.0579 17.6156V12.3699C11.6467 12.3129 11.2275 12.2773 10.8014 12.2773C10.7272 12.2773 10.655 12.2814 10.5808 12.2834L10.5457 12.2885L10.5416 16.2505C10.1445 16.1244 9.76349 16.0735 9.32427 16.0735Z" fill="#FE2C55"/>
<path d="M25.6958 8.29415L25.6687 8.28906L25.6567 12.2439C23.0294 12.2439 20.6057 11.3763 18.6181 9.92981L18.6121 20.4314C18.6121 25.6466 14.4636 29.8517 9.32234 29.8517C7.33583 29.8517 5.49272 29.2546 3.97852 28.1764C5.68224 30.0318 8.10797 31.1944 10.7984 31.1944C15.9397 31.1944 20.1223 26.9517 20.1223 21.7365V11.2929C22.1088 12.7393 24.5436 13.5917 27.1699 13.5917V8.45283C26.6665 8.45283 26.1731 8.3979 25.6958 8.29415Z" fill="#FE2C55"/>
<path d="M18.6463 20.4322V9.98956C20.6328 11.436 23.0675 12.2884 25.6938 12.2884V8.2949C24.1766 7.96533 22.8399 7.13936 21.8562 5.99196C20.2688 4.9422 19.1236 3.2628 18.7656 1.30469H15.0563L15.0483 21.899C14.963 24.205 13.0918 26.0563 10.7985 26.0563C9.37754 26.0563 8.12005 25.3442 7.3469 24.2558C5.99114 23.5326 5.06357 22.0912 5.06357 20.4322C5.06357 18.0499 6.97387 16.1121 9.32238 16.1121C9.7606 16.1121 10.1808 16.1853 10.5789 16.3115V12.2823C5.53889 12.4013 1.47461 16.5943 1.47461 21.7352C1.47461 24.2212 2.42625 26.4855 3.97856 28.1751C5.49276 29.2533 7.33487 29.8891 9.32238 29.8891C14.4636 29.8911 18.6463 25.6484 18.6463 20.4322Z" fill="white"/>
<path d="M30.6934 3.05078H38.9521L38.1939 5.40041L36.0509 5.39942V14.0885H33.3811V5.39942L30.6944 5.40438L30.6934 3.05078Z" fill="white"/>
<path d="M52.4805 3.05078H60.9308L60.1726 5.40041L57.843 5.39942V14.0885H55.1692V5.39942L52.4825 5.40438L52.4805 3.05078Z" fill="white"/>
<path d="M39.4551 6.55859H42.1029L42.0999 14.0857H39.471L39.4551 6.55859Z" fill="white"/>
<path d="M43.1543 3.01953H45.7991V8.16034L48.42 5.60234H51.5777L48.2614 8.80232L51.9758 14.089H49.0615L46.5833 10.4227L45.7991 11.1807V14.089H43.1543V3.01953Z" fill="white"/>
<path d="M71.1777 3.01953H73.8226V8.16034L76.4435 5.60234H79.6011L76.2848 8.80232L79.9992 14.089H77.085L74.6068 10.4227L73.8226 11.1807V14.089H71.1777V3.01953V3.01953Z" fill="white"/>
<path d="M40.7802 5.70205C41.5163 5.70205 42.1131 5.10855 42.1131 4.37642C42.1131 3.64429 41.5163 3.05078 40.7802 3.05078C40.044 3.05078 39.4473 3.64429 39.4473 4.37642C39.4473 5.10855 40.044 5.70205 40.7802 5.70205Z" fill="white"/>
<path d="M60.5921 9.5839C60.5921 7.21442 62.4318 5.2736 64.7674 5.09301C64.6497 5.08408 64.49 5.07812 64.3703 5.07812C61.8681 5.07812 59.8398 7.09535 59.8398 9.5839C59.8398 12.0724 61.8681 14.0897 64.3703 14.0897C64.49 14.0897 64.6497 14.0837 64.7674 14.0748C62.4318 13.8942 60.5921 11.9534 60.5921 9.5839Z" fill="#25F4EE"/>
<path d="M65.7985 5.07812C65.6778 5.07812 65.5172 5.08408 65.3984 5.09301C67.733 5.27459 69.5707 7.21542 69.5707 9.5839C69.5707 11.9524 67.733 13.8922 65.3984 14.0748C65.5162 14.0837 65.6778 14.0897 65.7985 14.0897C68.3007 14.0897 70.329 12.0724 70.329 9.5839C70.328 7.09535 68.2997 5.07812 65.7985 5.07812Z" fill="#FE2C55"/>
<path d="M65.0812 5.07812C62.5791 5.07812 60.5508 7.09535 60.5508 9.5839C60.5508 12.0724 62.5791 14.0897 65.0812 14.0897C67.5834 14.0897 69.6117 12.0724 69.6117 9.5839C69.6117 7.09535 67.5834 5.07812 65.0812 5.07812ZM65.0812 11.7748C63.8651 11.7748 62.8784 10.7944 62.8784 9.5839C62.8784 8.37435 63.8641 7.39303 65.0812 7.39303C66.2974 7.39303 67.2841 8.37336 67.2841 9.5839C67.2831 10.7934 66.2974 11.7748 65.0812 11.7748Z" fill="white"/>
<path d="M32.2037 24.415C32.2197 24.9087 32.4469 25.3709 32.9023 25.7684C33.3567 26.1668 33.9252 26.3572 34.6078 26.3572C35.956 26.3572 36.7187 25.6565 36.8649 24.7487C36.9459 23.6662 36.1342 23.045 34.9652 22.7898L33.5199 22.4395C31.7013 21.9772 30.7914 21.0223 30.7914 19.5728C30.7914 18.665 31.1488 17.9329 31.8634 17.3598C32.578 16.7709 33.4228 16.4844 34.4137 16.4844C35.4526 16.4844 36.3134 16.7866 36.996 17.3765C37.6776 17.9653 38.0189 18.7298 38.0189 19.7014H36.5085C36.5085 18.6189 35.6318 17.9025 34.3977 17.9025C33.8292 17.9025 33.3417 18.0615 32.9193 18.3647C32.513 18.667 32.3018 19.0654 32.3018 19.5591C32.3018 20.3236 32.8373 20.8329 33.8932 21.0881L35.3545 21.4385C37.4824 21.9645 38.5544 23.1588 38.3432 24.8782C38.2461 25.7065 37.8557 26.3916 37.1901 26.9323C36.5246 27.474 35.6638 27.7449 34.6078 27.7449C33.4868 27.7449 32.561 27.4102 31.8144 26.7576C31.0677 26.0883 30.6934 25.3081 30.6934 24.417H32.2037V24.415Z" fill="white"/>
<path d="M41.1531 27.5829H39.6758V16.1016H41.1541V21.2608C41.3653 20.8466 41.7066 20.5286 42.193 20.3216C42.6965 20.0988 43.1839 19.9869 43.6543 19.9869C45.554 19.9869 46.7401 21.197 46.7241 23.2834V27.5829H45.2457V23.3786C45.2457 22.1685 44.5151 21.404 43.4592 21.404C42.8586 21.404 42.3221 21.5797 41.8517 21.9458C41.3803 22.2961 41.1531 22.8379 41.1531 23.57V27.5829V27.5829Z" fill="white"/>
<path d="M48.9573 21.0551C49.721 20.3386 50.6628 19.9883 51.7828 19.9883C52.9038 19.9883 53.8457 20.3386 54.6084 21.0551C55.372 21.7715 55.7614 22.695 55.7614 23.8422C55.7614 24.9885 55.372 25.9287 54.5924 26.6608C53.8287 27.3772 52.8868 27.7433 51.7828 27.7433C50.6789 27.7433 49.736 27.3772 48.9733 26.6608C48.2107 25.9444 47.8203 25.0042 47.8203 23.8422C47.8203 22.696 48.1936 21.7715 48.9573 21.0551ZM53.5534 22.0747C53.082 21.6292 52.4815 21.4054 51.7828 21.4054C51.0842 21.4054 50.4837 21.6282 49.9963 22.0747C49.5248 22.5203 49.2816 23.1101 49.2816 23.8422C49.2816 24.591 49.5248 25.1956 49.9963 25.6578C50.4837 26.12 51.0842 26.3428 51.7828 26.3428C52.4815 26.3428 53.082 26.12 53.5534 25.6578C54.0409 25.1956 54.2841 24.591 54.2841 23.8422C54.2841 23.1091 54.0409 22.5203 53.5534 22.0747Z" fill="white"/>
<path d="M58.4607 20.1443V21.3063C58.9642 20.478 60.0201 19.9844 61.1081 19.9844C62.164 19.9844 63.0729 20.3504 63.8035 21.0669C64.5342 21.7833 64.9075 22.7234 64.9075 23.8854C64.9075 25.0317 64.5342 25.9552 63.8035 26.6726C63.0729 27.389 62.1791 27.7394 61.1081 27.7394C60.0041 27.7394 58.9322 27.2938 58.4607 26.4655V31.1949H56.9824V20.1443H58.4607ZM59.2234 25.6863C59.7269 26.1161 60.2954 26.3232 60.961 26.3232C62.3742 26.3232 63.4132 25.3516 63.4132 23.9031C63.4132 23.171 63.1699 22.5654 62.6985 22.1032C62.2271 21.641 61.6596 21.4025 60.961 21.4025C60.2623 21.4025 59.6778 21.6253 59.1904 22.0875C58.719 22.5331 58.4758 23.1386 58.4758 23.9031C58.4768 24.6509 58.721 25.2564 59.2234 25.6863Z" fill="white"/>
</svg>
